<?xml version="1.0" standalone="no"?>
<!DOCTYPE svg PUBLIC "-//W3C//DTD SVG 20010904//EN"
 "http://www.w3.org/TR/2001/REC-SVG-20010904/DTD/svg10.dtd">
<svg version="1.0" xmlns="http://www.w3.org/2000/svg"
 width="300.000000pt" height="300.000000pt" viewBox="0 0 300.000000 300.000000"
 preserveAspectRatio="xMidYMid meet">
<metadata>
Created by potrace 1.10, written by Peter Selinger 2001-2011
</metadata>
<g transform="translate(-60.000000,390.000000) scale(0.150000,-0.150000)"
fill="#F8F8F8" stroke="none">
<path d="M961 1866 c-20 -24 3 -58 94 -140 103 -94 135 -150 135 -236 0 -48 4
-60 28 -82 36 -35 97 -60 235 -97 149 -40 186 -40 227 0 98 98 102 140 24 220
-47 48 -47 48 -30 74 16 25 16 28 -5 71 -14 30 -25 42 -32 35 -13 -13 0 -61
18 -61 23 0 18 -15 -15 -52 -28 -31 -29 -33 -11 -40 11 -4 38 -26 61 -49 45
-47 55 -97 22 -121 -10 -7 -28 -28 -41 -45 -19 -28 -28 -33 -64 -33 -81 1
-337 80 -379 118 -15 12 -17 25 -12 68 4 31 2 59 -3 66 -6 7 -13 25 -17 41 -6
27 -90 118 -178 192 -26 22 -48 48 -48 58 0 9 1 17 3 17 11 0 98 -39 119 -54
37 -24 118 -134 125 -168 6 -29 13 -34 29 -19 5 6 36 6 74 2 36 -5 68 -6 73
-4 4 2 7 24 7 47 0 25 6 49 14 55 11 9 12 6 9 -16 -4 -27 -4 -27 11 -9 9 11
16 28 16 37 0 10 9 20 19 24 10 3 21 17 23 30 6 30 -2 26 -64 -34 -26 -25 -50
-58 -54 -73 -5 -27 -8 -28 -64 -28 l-59 0 -41 60 c-55 81 -92 117 -143 140
-50 23 -90 25 -106 6z"/>
<path d="M1510 1786 c0 -13 -6 -29 -14 -35 -15 -12 -27 -81 -15 -81 10 0 68
123 62 133 -10 17 -33 6 -33 -17z"/>
<path d="M1550 1750 c0 -14 5 -31 10 -36 8 -8 7 -19 -1 -38 -10 -20 -10 -29
-1 -38 9 -9 12 -9 12 -1 0 7 11 24 25 39 25 26 35 61 15 49 -16 -10 -41 15
-35 35 3 11 0 17 -10 17 -10 0 -15 -10 -15 -27z"/>
<path d="M1436 1655 c-3 -9 -6 -30 -6 -47 0 -26 -3 -29 -22 -25 -110 27 -170
14 -148 -33 13 -30 39 -43 156 -80 58 -18 119 -29 170 -31 78 -4 79 -3 81 21
2 19 -8 32 -40 55 -48 35 -59 64 -28 72 17 4 20 12 18 39 -3 42 -12 43 -25 5
-8 -21 -16 -28 -36 -28 -14 0 -23 3 -20 8 3 5 -1 20 -9 34 -12 24 -15 25 -26
11 -17 -20 -38 -20 -49 0 -8 15 -10 15 -16 -1z m96 -62 c14 -16 29 -38 32 -49
4 -12 15 -29 26 -39 11 -10 20 -22 20 -27 0 -17 -102 -7 -182 18 -146 46 -178
81 -63 69 61 -7 63 -7 84 24 28 38 50 39 83 4z"/>
</g>
</svg>
